<?xml version="1.0" encoding="UTF-8"?>
<svg id="Layer_1" data-name="Layer 1" xmlns="http://www.w3.org/2000/svg" viewBox="0 0 1674.56 500">
  <defs>
    <style>
      .cls-1 {
        font-family: -apple-system, BlinkMacSystemFont, "Segoe UI", Roboto, Helvetica, Arial, sans-serif, "Apple Color Emoji", "Segoe UI Emoji", "Segoe UI Symbol";
        font-size: 409.88px;
        font-weight: 600;
      }

      .cls-1, .cls-2 {
        fill: #fff;
      }

      .cls-3 {
        fill: #ee1d48;
      }
    </style>
  </defs>
  <rect class="cls-3" width="500" height="500" rx="78.31" ry="78.31"/>
  <path class="cls-2" d="m403.53,268.48c-44.87-51.42-125.56-71.41-157.13-214.22-31.57,142.81-112.25,162.79-157.13,214.22-59.29,64.85-29.03,120.54-29.03,120.54,27.72,60.6,99.12,56.67,99.12,56.67,94.99,0,69.11-69.44,69.11-69.44-32.43,26.2-77.46-14.9-43.56-53.72h61.48s61.48,0,61.48,0c33.9,38.81-11.14,79.92-43.56,53.72,0,0-25.88,69.44,69.11,69.44,0,0,71.41,3.93,99.12-56.67,0,0,30.26-55.68-29.03-120.54Zm-157.13,5.9h-26.11c10.86-22.02,20.23-50.01,26.11-78.37,5.88,28.35,15.25,56.35,26.11,78.37h-26.11Z"/>
  <text class="cls-1" transform="translate(615.53 393.1)"><tspan x="0" y="0">Ace</tspan></text>
</svg>
